<svg xmlns="http://www.w3.org/2000/svg" viewBox="0 0 480 220" fill="none" aria-labelledby="crow-flight-title">
  <title id="crow-flight-title">American Crow in flight, wings spread, fingered primaries visible</title>

  <!-- Body -->
  <path d="M 240 110
           C 268 108, 282 114, 288 122
           C 286 130, 270 134, 245 132
           C 220 134, 208 128, 206 120
           C 210 112, 220 109, 240 110 Z"
        fill="#0e1113"/>

  <!-- Head + neck -->
  <path d="M 285 118
           C 298 117, 310 119, 318 122
           C 320 126, 314 129, 305 129
           C 295 129, 287 126, 285 122 Z"
        fill="#0e1113"/>

  <!-- Bill -->
  <path d="M 316 122 L 338 125 L 340 128 L 316 128 Z" fill="#0e1113"/>

  <!-- Tail -->
  <path d="M 215 118
           L 195 112
           L 188 118
           L 195 126
           L 215 124 Z"
        fill="#0e1113"/>

  <!-- LEFT WING -->
  <path d="M 230 110
           C 200 95, 165 82, 130 78
           C 105 76, 82 80, 65 90
           C 75 92, 90 93, 105 95
           Q 75 105, 50 122
           Q 80 118, 110 116
           Q 85 130, 70 152
           Q 100 138, 130 130
           Q 110 145, 102 168
           Q 130 150, 155 140
           Q 140 158, 135 178
           Q 158 158, 178 145
           Q 175 162, 178 178
           Q 195 158, 210 142
           C 220 130, 228 120, 232 114 Z"
        fill="#161a1f"/>
  <path d="M 230 110
           C 205 100, 175 92, 145 90
           C 130 89, 118 92, 110 98
           C 135 96, 165 100, 195 108
           C 215 113, 225 116, 232 114 Z"
        fill="#0a0d0e"/>

  <!-- RIGHT WING -->
  <path d="M 250 110
           C 280 95, 315 82, 350 78
           C 375 76, 398 80, 415 90
           C 405 92, 390 93, 375 95
           Q 405 105, 430 122
           Q 400 118, 370 116
           Q 395 130, 410 152
           Q 380 138, 350 130
           Q 370 145, 378 168
           Q 350 150, 325 140
           Q 340 158, 345 178
           Q 322 158, 302 145
           Q 305 162, 302 178
           Q 285 158, 270 142
           C 260 130, 252 120, 248 114 Z"
        fill="#161a1f"/>
  <path d="M 250 110
           C 275 100, 305 92, 335 90
           C 350 89, 362 92, 370 98
           C 345 96, 315 100, 285 108
           C 265 113, 255 116, 248 114 Z"
        fill="#0a0d0e"/>

  <!-- Eye -->
  <circle cx="306" cy="121" r="1.2" fill="#c8a85a"/>
</svg>
