<svg xmlns="http://www.w3.org/2000/svg" viewBox="0 0 1200 100" fill="none" aria-hidden="true" preserveAspectRatio="none">
  <!-- A stylized waveform suggesting a crow caw bout: 4 short bursts of variable amplitude -->
  <g fill="currentColor">
    <!-- Quiet lead-in -->
    <rect x="0"   y="48" width="3" height="4"  rx="1"/>
    <rect x="6"   y="47" width="3" height="6"  rx="1"/>
    <rect x="12"  y="46" width="3" height="8"  rx="1"/>
    <rect x="18"  y="48" width="3" height="4"  rx="1"/>
    <rect x="24"  y="47" width="3" height="6"  rx="1"/>
    <rect x="30"  y="48" width="3" height="4"  rx="1"/>
    <rect x="36"  y="46" width="3" height="8"  rx="1"/>
    <rect x="42"  y="47" width="3" height="6"  rx="1"/>
    <rect x="48"  y="46" width="3" height="8"  rx="1"/>
    <rect x="54"  y="44" width="3" height="12" rx="1"/>
    <rect x="60"  y="42" width="3" height="16" rx="1"/>
    <rect x="66"  y="40" width="3" height="20" rx="1"/>
    <rect x="72"  y="36" width="3" height="28" rx="1"/>
    <rect x="78"  y="30" width="3" height="40" rx="1"/>
    <rect x="84"  y="22" width="3" height="56" rx="1"/>
    <rect x="90"  y="14" width="3" height="72" rx="1"/>
    <rect x="96"  y="8"  width="3" height="84" rx="1"/>
    <rect x="102" y="6"  width="3" height="88" rx="1"/>
    <rect x="108" y="2"  width="3" height="96" rx="1"/>
    <rect x="114" y="6"  width="3" height="88" rx="1"/>
    <rect x="120" y="10" width="3" height="80" rx="1"/>
    <rect x="126" y="16" width="3" height="68" rx="1"/>
    <rect x="132" y="22" width="3" height="56" rx="1"/>
    <rect x="138" y="28" width="3" height="44" rx="1"/>
    <rect x="144" y="36" width="3" height="28" rx="1"/>
    <rect x="150" y="42" width="3" height="16" rx="1"/>
    <rect x="156" y="46" width="3" height="8"  rx="1"/>
    <rect x="162" y="48" width="3" height="4"  rx="1"/>
    <rect x="168" y="47" width="3" height="6"  rx="1"/>
    <rect x="174" y="48" width="3" height="4"  rx="1"/>
    <rect x="180" y="48" width="3" height="4"  rx="1"/>
    <rect x="186" y="47" width="3" height="6"  rx="1"/>

    <!-- Silence gap -->
    <rect x="194" y="49" width="3" height="2"  rx="1" opacity="0.3"/>
    <rect x="200" y="49" width="3" height="2"  rx="1" opacity="0.3"/>
    <rect x="206" y="49" width="3" height="2"  rx="1" opacity="0.3"/>
    <rect x="212" y="49" width="3" height="2"  rx="1" opacity="0.3"/>
    <rect x="218" y="49" width="3" height="2"  rx="1" opacity="0.3"/>
    <rect x="224" y="49" width="3" height="2"  rx="1" opacity="0.3"/>
    <rect x="230" y="49" width="3" height="2"  rx="1" opacity="0.3"/>

    <!-- Second caw -->
    <rect x="238" y="44" width="3" height="12" rx="1"/>
    <rect x="244" y="38" width="3" height="24" rx="1"/>
    <rect x="250" y="28" width="3" height="44" rx="1"/>
    <rect x="256" y="18" width="3" height="64" rx="1"/>
    <rect x="262" y="10" width="3" height="80" rx="1"/>
    <rect x="268" y="4"  width="3" height="92" rx="1"/>
    <rect x="274" y="0"  width="3" height="100" rx="1"/>
    <rect x="280" y="2"  width="3" height="96" rx="1"/>
    <rect x="286" y="6"  width="3" height="88" rx="1"/>
    <rect x="292" y="12" width="3" height="76" rx="1"/>
    <rect x="298" y="20" width="3" height="60" rx="1"/>
    <rect x="304" y="28" width="3" height="44" rx="1"/>
    <rect x="310" y="38" width="3" height="24" rx="1"/>
    <rect x="316" y="44" width="3" height="12" rx="1"/>
    <rect x="322" y="48" width="3" height="4"  rx="1"/>

    <!-- Silence -->
    <rect x="330" y="49" width="3" height="2"  rx="1" opacity="0.3"/>
    <rect x="336" y="49" width="3" height="2"  rx="1" opacity="0.3"/>
    <rect x="342" y="49" width="3" height="2"  rx="1" opacity="0.3"/>
    <rect x="348" y="49" width="3" height="2"  rx="1" opacity="0.3"/>
    <rect x="354" y="49" width="3" height="2"  rx="1" opacity="0.3"/>
    <rect x="360" y="49" width="3" height="2"  rx="1" opacity="0.3"/>

    <!-- Third caw -->
    <rect x="368" y="46" width="3" height="8"  rx="1"/>
    <rect x="374" y="40" width="3" height="20" rx="1"/>
    <rect x="380" y="32" width="3" height="36" rx="1"/>
    <rect x="386" y="22" width="3" height="56" rx="1"/>
    <rect x="392" y="12" width="3" height="76" rx="1"/>
    <rect x="398" y="6"  width="3" height="88" rx="1"/>
    <rect x="404" y="4"  width="3" height="92" rx="1"/>
    <rect x="410" y="8"  width="3" height="84" rx="1"/>
    <rect x="416" y="14" width="3" height="72" rx="1"/>
    <rect x="422" y="22" width="3" height="56" rx="1"/>
    <rect x="428" y="32" width="3" height="36" rx="1"/>
    <rect x="434" y="42" width="3" height="16" rx="1"/>
    <rect x="440" y="48" width="3" height="4"  rx="1"/>

    <!-- Silence -->
    <rect x="448" y="49" width="3" height="2"  rx="1" opacity="0.3"/>
    <rect x="454" y="49" width="3" height="2"  rx="1" opacity="0.3"/>
    <rect x="460" y="49" width="3" height="2"  rx="1" opacity="0.3"/>
    <rect x="466" y="49" width="3" height="2"  rx="1" opacity="0.3"/>
    <rect x="472" y="49" width="3" height="2"  rx="1" opacity="0.3"/>

    <!-- Fourth caw — softer -->
    <rect x="480" y="46" width="3" height="8"  rx="1"/>
    <rect x="486" y="42" width="3" height="16" rx="1"/>
    <rect x="492" y="36" width="3" height="28" rx="1"/>
    <rect x="498" y="28" width="3" height="44" rx="1"/>
    <rect x="504" y="22" width="3" height="56" rx="1"/>
    <rect x="510" y="18" width="3" height="64" rx="1"/>
    <rect x="516" y="22" width="3" height="56" rx="1"/>
    <rect x="522" y="30" width="3" height="40" rx="1"/>
    <rect x="528" y="40" width="3" height="20" rx="1"/>
    <rect x="534" y="46" width="3" height="8"  rx="1"/>

    <!-- Tapering tail -->
    <rect x="542" y="48" width="3" height="4"  rx="1" opacity="0.7"/>
    <rect x="548" y="48" width="3" height="4"  rx="1" opacity="0.6"/>
    <rect x="554" y="49" width="3" height="2"  rx="1" opacity="0.5"/>
    <rect x="560" y="49" width="3" height="2"  rx="1" opacity="0.4"/>
    <rect x="566" y="49" width="3" height="2"  rx="1" opacity="0.3"/>
    <rect x="572" y="49" width="3" height="2"  rx="1" opacity="0.25"/>
    <rect x="578" y="49" width="3" height="2"  rx="1" opacity="0.2"/>
    <rect x="584" y="49" width="3" height="2"  rx="1" opacity="0.15"/>
    <rect x="590" y="49" width="3" height="2"  rx="1" opacity="0.1"/>

    <!-- Repeat the pattern from x=600 onwards, mirrored/varied for visual rhythm without exact repeat -->
    <rect x="606" y="49" width="3" height="2"  rx="1" opacity="0.15"/>
    <rect x="612" y="49" width="3" height="2"  rx="1" opacity="0.2"/>
    <rect x="618" y="48" width="3" height="4"  rx="1" opacity="0.4"/>
    <rect x="624" y="46" width="3" height="8"  rx="1"/>
    <rect x="630" y="42" width="3" height="16" rx="1"/>
    <rect x="636" y="34" width="3" height="32" rx="1"/>
    <rect x="642" y="24" width="3" height="52" rx="1"/>
    <rect x="648" y="14" width="3" height="72" rx="1"/>
    <rect x="654" y="6"  width="3" height="88" rx="1"/>
    <rect x="660" y="2"  width="3" height="96" rx="1"/>
    <rect x="666" y="0"  width="3" height="100" rx="1"/>
    <rect x="672" y="4"  width="3" height="92" rx="1"/>
    <rect x="678" y="10" width="3" height="80" rx="1"/>
    <rect x="684" y="18" width="3" height="64" rx="1"/>
    <rect x="690" y="28" width="3" height="44" rx="1"/>
    <rect x="696" y="38" width="3" height="24" rx="1"/>
    <rect x="702" y="46" width="3" height="8"  rx="1"/>
    <rect x="708" y="48" width="3" height="4"  rx="1"/>

    <!-- Silence -->
    <rect x="716" y="49" width="3" height="2"  rx="1" opacity="0.3"/>
    <rect x="722" y="49" width="3" height="2"  rx="1" opacity="0.3"/>
    <rect x="728" y="49" width="3" height="2"  rx="1" opacity="0.3"/>
    <rect x="734" y="49" width="3" height="2"  rx="1" opacity="0.3"/>
    <rect x="740" y="49" width="3" height="2"  rx="1" opacity="0.3"/>
    <rect x="746" y="49" width="3" height="2"  rx="1" opacity="0.3"/>

    <!-- Sixth caw -->
    <rect x="754" y="44" width="3" height="12" rx="1"/>
    <rect x="760" y="36" width="3" height="28" rx="1"/>
    <rect x="766" y="24" width="3" height="52" rx="1"/>
    <rect x="772" y="14" width="3" height="72" rx="1"/>
    <rect x="778" y="6"  width="3" height="88" rx="1"/>
    <rect x="784" y="2"  width="3" height="96" rx="1"/>
    <rect x="790" y="6"  width="3" height="88" rx="1"/>
    <rect x="796" y="14" width="3" height="72" rx="1"/>
    <rect x="802" y="26" width="3" height="48" rx="1"/>
    <rect x="808" y="38" width="3" height="24" rx="1"/>
    <rect x="814" y="46" width="3" height="8"  rx="1"/>

    <!-- Long tail of silence and reverberation -->
    <rect x="822" y="48" width="3" height="4"  rx="1" opacity="0.7"/>
    <rect x="828" y="48" width="3" height="4"  rx="1" opacity="0.5"/>
    <rect x="834" y="49" width="3" height="2"  rx="1" opacity="0.4"/>
    <rect x="840" y="49" width="3" height="2"  rx="1" opacity="0.3"/>
    <rect x="846" y="49" width="3" height="2"  rx="1" opacity="0.25"/>
    <rect x="852" y="49" width="3" height="2"  rx="1" opacity="0.2"/>
    <rect x="858" y="49" width="3" height="2"  rx="1" opacity="0.15"/>
    <rect x="864" y="49" width="3" height="2"  rx="1" opacity="0.1"/>
    <rect x="870" y="49" width="3" height="2"  rx="1" opacity="0.08"/>
    <rect x="876" y="49" width="3" height="2"  rx="1" opacity="0.06"/>

    <!-- Distant echo -->
    <rect x="900" y="48" width="3" height="4"  rx="1" opacity="0.2"/>
    <rect x="906" y="46" width="3" height="8"  rx="1" opacity="0.3"/>
    <rect x="912" y="44" width="3" height="12" rx="1" opacity="0.35"/>
    <rect x="918" y="42" width="3" height="16" rx="1" opacity="0.4"/>
    <rect x="924" y="40" width="3" height="20" rx="1" opacity="0.4"/>
    <rect x="930" y="42" width="3" height="16" rx="1" opacity="0.35"/>
    <rect x="936" y="44" width="3" height="12" rx="1" opacity="0.3"/>
    <rect x="942" y="46" width="3" height="8"  rx="1" opacity="0.2"/>
    <rect x="948" y="48" width="3" height="4"  rx="1" opacity="0.15"/>

    <!-- Distance fading -->
    <rect x="970" y="49" width="3" height="2"  rx="1" opacity="0.15"/>
    <rect x="976" y="49" width="3" height="2"  rx="1" opacity="0.12"/>
    <rect x="982" y="49" width="3" height="2"  rx="1" opacity="0.1"/>
    <rect x="988" y="49" width="3" height="2"  rx="1" opacity="0.08"/>
    <rect x="994" y="49" width="3" height="2"  rx="1" opacity="0.06"/>
    <rect x="1000" y="49" width="3" height="2"  rx="1" opacity="0.05"/>
    <rect x="1006" y="49" width="3" height="2"  rx="1" opacity="0.04"/>
    <rect x="1012" y="49" width="3" height="2"  rx="1" opacity="0.03"/>
  </g>

  <!-- Center axis line -->
  <line x1="0" y1="50" x2="1200" y2="50" stroke="currentColor" stroke-width="0.4" opacity="0.15"/>
</svg>
